<svg>
<symbol xmlns="http://www.w3.org/2000/svg" viewBox="0 0 24 24" id="today-icon-27">
<path 
d="M0.9999889731407166,6.00756L0.9999914035607166,17.9925C0.9999914012907165,20.2016,2.7508589731407165,22,4.9599889731407165,22C9.653328973140717,22,14.346688973140717,22,19.039988973140716,22C21.249188973140715,22,22.999988973140717,20.2016,22.999988973140717,17.9925C22.999988973140717,14.8466,22.999988973140717,11.44211,22.999988973140717,8.200009999999999L22.999988973140717,6.20001L22.999988973140717,6.00756C22.999988973140717,3.79842,21.177188973140716,2.00000762939,18.968088973140716,2.00000762939L4.995128973140717,2.00000762939C2.7859889731407166,2.00000762939,0.9999889731407166,3.79842,0.9999889731407166,6.00756ZM20.999988973140717,6.20001L20.999988973140717,5.989520000000001C20.999988973140717,4.88495,20.113288973140715,4.00001,19.008688973140718,4.00001L14.996088973140717,4.00002C11.661188973140716,4.000030000000001,8.326188973140717,4.000030000000001,4.9912389731407165,4.00002C3.8866589731407166,4.00001,2.9999889731407166,4.88494,2.9999889731407166,5.989520000000001L2.9999889731407166,6.20001L20.999988973140717,6.20001ZM2.9999789731407165,8.200009999999999L2.9999689731407164,8.707460000000001C2.999958973140717,11.79764,2.9999389731407167,15.1334,2.9999689731407164,18.0105C2.9999889731407166,19.1151,3.8866989731407164,20,4.991258973140717,20L8.165028973140718,20C11.779588973140717,20,15.394188973140716,20.0001,19.008788973140717,20C20.113288973140715,20,20.999988973140717,19.1151,20.999988973140717,18.0105C20.999988973140717,15.0265,20.999988973140717,11.54923,20.999988973140717,8.3642L20.999988973140717,8.200009999999999L2.9999789731407165,8.200009999999999ZM11.119088973140716,17.9102L6.829338973140716,17.9102C6.317288973140717,17.9102,6.066638973140717,17.627299999999998,6.066638973140717,17.219099999999997C6.066638973140717,16.911099999999998,6.184798973140716,16.707,6.510648973140716,16.4062L8.820218973140715,14.2005C9.776278973140716,13.2803,10.023348973140717,12.9043,10.023348973140717,12.3457C10.023348973140717,11.70833,9.529208973140717,11.25,8.838118973140716,11.25C8.215078973140717,11.25,7.785388973140717,11.56152,7.5060889731407165,12.1846C7.323478973140716,12.5068,7.133698973140716,12.6572,6.786368973140717,12.6572C6.349518973140716,12.6572,6.091708973140716,12.3994,6.091708973140716,11.99837C6.091708973140716,11.87305,6.1131889731407165,11.76204,6.152578973140717,11.64746C6.413968973140716,10.78808,7.387928973140717,9.98958,8.852448973140717,9.98958C10.495998973140717,9.98958,11.602488973140716,10.91341,11.602488973140716,12.2454C11.602488973140716,13.1908,11.140488973140716,13.7816,9.872958973140717,14.9775L8.197168973140716,16.588900000000002L8.197168973140716,16.6211L11.119088973140716,16.6211C11.537988973140717,16.6211,11.792188973140716,16.8753,11.792188973140716,17.2656C11.792188973140716,17.6488,11.537988973140717,17.9102,11.119088973140716,17.9102ZM14.925388973140716,17.5503C14.748088973140717,17.894,14.549388973140717,18.0229,14.200288973140717,18.0229C13.743688973140717,18.0229,13.459088973140716,17.738300000000002,13.459088973140716,17.362299999999998C13.459088973140716,17.174300000000002,13.501988973140717,17.0293,13.598688973140716,16.852L16.46688897314072,11.48096L16.46688897314072,11.44873L13.126088973140716,11.44873C12.739288973140717,11.44873,12.454688973140717,11.19092,12.454688973140717,10.79883C12.454688973140717,10.41211,12.739288973140717,10.15967,13.126088973140716,10.15967L17.138288973140718,10.15967C17.702188973140718,10.15967,18.105088973140717,10.49267,18.105088973140717,11.0459C18.105088973140717,11.33594,18.00838897314072,11.59375,17.798888973140716,12.002L14.925388973140716,17.5503Z" 
fill-rule="evenodd">
</path>
</symbol>
</svg>